<svg width="56" height="54" viewBox="0 0 56 54" fill="none" xmlns="http://www.w3.org/2000/svg">
<path fill-rule="evenodd" clip-rule="evenodd" d="M27.5401 0C12.3321 0 0 12.3337 0 27.5484C0 39.7203 7.89107 50.0465 18.8337 53.6893C20.21 53.9442 20.7154 53.0917 20.7154 52.364C20.7154 51.7072 20.6897 49.5369 20.678 47.235C13.0161 48.9014 11.3994 43.9846 11.3994 43.9846C10.1467 40.8003 8.34163 39.9538 8.34163 39.9538C5.84303 38.244 8.52997 38.279 8.52997 38.279C11.2955 38.4734 12.7518 41.118 12.7518 41.118C15.208 45.3296 19.1944 44.1119 20.7659 43.4082C21.013 41.6274 21.7269 40.4123 22.5144 39.7244C16.3975 39.0276 9.96697 36.6654 9.96697 26.1097C9.96697 23.1022 11.0428 20.6445 12.8047 18.7154C12.5187 18.0214 11.5761 15.2195 13.0714 11.4249C13.0714 11.4249 15.3841 10.6845 20.6469 14.2488C22.8436 13.6382 25.1996 13.3323 27.5401 13.3219C29.8806 13.3323 32.2384 13.6382 34.4393 14.2488C39.6959 10.6845 42.0053 11.4249 42.0053 11.4249C43.5043 15.2195 42.5613 18.0214 42.2753 18.7154C44.0411 20.6445 45.1096 23.102 45.1096 26.1097C45.1096 36.6905 38.667 39.0205 32.5345 39.7023C33.5222 40.5573 34.4024 42.2339 34.4024 44.8039C34.4024 48.4898 34.3704 51.4565 34.3704 52.364C34.3704 53.0971 34.8661 53.9561 36.2623 53.6856C47.1989 50.0388 55.08 39.7162 55.08 27.5484C55.08 12.3337 42.7496 0 27.5401 0Z" fill="white"/>
<path d="M10.3281 39.2358C10.2681 39.373 10.0541 39.4142 9.85959 39.3201C9.66124 39.2299 9.54973 39.0426 9.61406 38.9048C9.67303 38.7635 9.88704 38.724 10.085 38.8189C10.2838 38.9089 10.397 39.0979 10.3281 39.2358ZM11.6731 40.4488C11.5427 40.571 11.2878 40.5142 11.1147 40.3211C10.9359 40.1284 10.9024 39.8709 11.0347 39.7467C11.1692 39.6246 11.4164 39.6817 11.5957 39.8746C11.7745 40.0694 11.8095 40.3252 11.6731 40.4488ZM12.5958 42.0008C12.4281 42.1185 12.1541 42.0082 11.9849 41.7624C11.8174 41.5168 11.8174 41.222 11.9885 41.1038C12.1584 40.9857 12.4281 41.0919 12.5997 41.3358C12.7669 41.5857 12.7672 41.8803 12.5958 42.0008ZM14.1561 43.7984C14.0062 43.9653 13.6871 43.9206 13.4534 43.6926C13.2145 43.4698 13.1478 43.1535 13.2981 42.9864C13.4497 42.8191 13.7707 42.8661 14.0062 43.0922C14.2436 43.3146 14.3158 43.6332 14.1561 43.7984ZM16.1726 44.4053C16.1068 44.6217 15.7993 44.7201 15.4897 44.6282C15.1804 44.5334 14.978 44.2798 15.0404 44.0611C15.1047 43.8433 15.4135 43.7407 15.7255 43.8391C16.0343 43.9334 16.237 44.1851 16.1726 44.4053ZM18.468 44.6626C18.4757 44.8907 18.213 45.0797 17.8879 45.0838C17.5609 45.0909 17.2965 44.9065 17.2931 44.6823C17.2931 44.4521 17.5498 44.2649 17.8766 44.2594C18.2017 44.2529 18.468 44.4361 18.468 44.6626ZM20.7226 44.5753C20.7616 44.7977 20.5356 45.0261 20.2129 45.0868C19.8955 45.1453 19.6017 45.0081 19.5612 44.7877C19.5217 44.5597 19.752 44.3314 20.0688 44.2722C20.3921 44.2154 20.6814 44.3492 20.7226 44.5753Z" fill="white"/>
</svg>
