<svg width="56" height="56" viewBox="0 0 56 56" fill="none" xmlns="http://www.w3.org/2000/svg">
<path d="M46.9259 46.9373H38.7694V34.1565C38.7694 31.1087 38.7075 27.1866 34.5191 27.1866C30.2665 27.1866 29.617 30.5028 29.617 33.9316V46.9373H21.4605V20.655H29.2957V24.2375H29.4012C30.496 22.172 33.1582 19.9917 37.1354 19.9917C45.3997 19.9917 46.9282 25.4309 46.9282 32.511L46.9259 46.9373ZM12.2484 17.0587C9.62294 17.0587 7.51383 14.9336 7.51383 12.3196C7.51383 9.70785 9.62523 7.58498 12.2484 7.58498C14.8647 7.58498 16.9853 9.70785 16.9853 12.3196C16.9853 14.9336 14.8624 17.0587 12.2484 17.0587ZM16.3381 46.9373H8.15872V20.655H16.3381V46.9373ZM51.0064 0H4.06445C1.81764 0 0 1.77633 0 3.96806V51.1119C0 53.306 1.81764 55.08 4.06445 55.08H50.9995C53.244 55.08 55.08 53.306 55.08 51.1119V3.96806C55.08 1.77633 53.244 0 50.9995 0L51.0064 0Z" fill="white"/>
</svg>
