<svg width="56" height="45" viewBox="0 0 56 45" fill="none" xmlns="http://www.w3.org/2000/svg">
<path fill-rule="evenodd" clip-rule="evenodd" d="M51.7683 0H3.30478C1.46413 0.0241803 -0.0118251 1.52965 0.000444249 3.37042V5.74954C-0.00784962 6.00315 0.100356 6.24662 0.294162 6.41041L24.7315 26.4347C26.2688 27.9221 28.7088 27.9221 30.2461 26.4347L54.6835 6.38838C54.8773 6.22459 54.9855 5.98112 54.9772 5.72751V3.39979C55.0185 1.57922 53.5882 0.0638505 51.7683 0ZM0.0224725 10.8015C0.0209151 10.4876 0.20131 10.2013 0.485079 10.0672C0.776797 9.90384 1.14204 9.95818 1.37358 10.1994L13.2325 20.7072C13.4084 20.8534 13.5062 21.0733 13.4968 21.3019C13.5061 21.5318 13.4243 21.7561 13.2692 21.9261L1.41029 33.1241C1.19576 33.388 0.828139 33.47 0.521794 33.3224C0.204709 33.1909 0.00678011 32.8718 0.0298153 32.5293V10.8015H0.0224725ZM0.0224725 37.9705C0.0262169 37.736 0.121015 37.5121 0.286819 37.3463L15.2151 23.4167C15.5174 23.122 15.9995 23.122 16.3018 23.4167L22.6094 29.0341C25.3657 31.6265 29.6634 31.6265 32.4196 29.0341L38.7272 23.4167C39.0353 23.1366 39.5059 23.1366 39.814 23.4167L54.7496 37.3169C54.921 37.4789 55.0168 37.7052 55.0139 37.9411V40.6506C55.0277 41.5407 54.6872 42.3997 54.0675 43.0387C53.4478 43.6776 52.5996 44.0442 51.7096 44.0578H3.30478C1.45427 44.0296 -0.0240687 42.5085 0.000444249 40.658V37.9484L0.0224725 37.9705ZM55.0433 32.522C55.0535 32.8612 54.8597 33.1735 54.5513 33.315C54.2426 33.438 53.89 33.3593 53.6628 33.1168L41.8039 21.8967C41.6488 21.7267 41.567 21.5025 41.5763 21.2726C41.574 21.0389 41.683 20.818 41.87 20.6778L53.7289 10.1406C53.9642 9.92577 54.3113 9.8872 54.588 10.0452C54.8784 10.1764 55.0691 10.461 55.08 10.7795V32.4999L55.0433 32.522Z" fill="white"/>
</svg>
