<?xml version="1.0" standalone="no"?>
<!DOCTYPE svg PUBLIC "-//W3C//DTD SVG 20010904//EN"
 "http://www.w3.org/TR/2001/REC-SVG-20010904/DTD/svg10.dtd">
<svg version="1.0" xmlns="http://www.w3.org/2000/svg"
 width="640.000000pt" height="640.000000pt" viewBox="0 0 640.000000 640.000000"
 preserveAspectRatio="xMidYMid meet">
<metadata>
Created by potrace 1.14, written by Peter Selinger 2001-2017
</metadata>
<g transform="translate(0.000000,640.000000) scale(0.100000,-0.100000)"
fill="#000000" stroke="none">
<path d="M0 3200 l0 -3200 3200 0 3200 0 0 3200 0 3200 -3200 0 -3200 0 0
-3200z m4046 1088 c60 -105 110 -198 112 -205 3 -11 -127 -13 -731 -13 l-735
0 -22 -37 c-12 -21 -92 -159 -178 -308 -85 -148 -188 -327 -228 -397 l-73
-128 133 -232 c73 -128 158 -277 189 -330 32 -54 82 -142 113 -195 31 -54 60
-102 64 -108 6 -6 185 -9 512 -7 l504 2 64 113 c35 61 74 128 86 147 12 19 43
72 69 118 26 45 51 82 54 82 3 0 57 -88 119 -195 l112 -195 -137 -240 -137
-240 -736 0 -736 0 -56 98 c-31 53 -122 212 -203 352 -81 140 -217 377 -302
525 -86 149 -159 274 -164 280 -18 19 -32 -6 296 560 107 185 284 493 373 648
l56 97 736 0 736 0 110 -192z m-1056 -678 c0 -5 7 -10 16 -10 8 0 12 5 9 10
-3 6 -1 10 4 10 21 0 11 19 -11 23 -20 4 -19 4 5 6 18 1 27 -4 27 -14 0 -14
71 -16 669 -13 368 2 673 6 677 11 4 4 4 10 0 15 -4 4 -328 9 -719 12 l-712 5
721 3 c650 2 722 0 728 -14 11 -28 6 -33 -36 -37 -40 -4 -40 -4 7 -3 l49 0 34
-59 c19 -33 54 -93 78 -133 24 -40 44 -75 44 -79 0 -3 12 -22 27 -41 21 -28
23 -34 9 -29 -14 5 -17 3 -12 -8 3 -8 1 -26 -4 -40 -6 -16 -6 -34 1 -52 7 -19
6 -29 -2 -37 -9 -8 -11 -7 -7 4 3 9 -1 25 -9 35 -13 19 -14 18 -8 -10 5 -27 4
-28 -5 -7 -7 16 -7 30 0 42 12 23 13 33 1 26 -5 -4 -7 4 -3 16 5 21 6 21 13 2
9 -22 9 -21 13 24 3 27 1 31 -10 21 -12 -10 -13 -9 -8 5 8 21 -15 78 -28 70
-6 -4 -8 -19 -4 -34 6 -35 -17 -61 -29 -33 -5 10 -10 31 -12 47 -4 23 -1 28
12 22 28 -10 36 3 20 33 -17 35 -45 48 -46 23 0 -11 -2 -12 -6 -4 -3 7 1 20 9
29 9 12 9 15 1 9 -11 -6 -13 -3 -13 19 0 3 -13 32 -30 65 -22 44 -36 60 -51
60 -16 0 -20 -5 -17 -27 2 -16 8 -27 13 -25 6 2 9 13 8 25 -2 19 -2 20 8 5 7
-12 7 -24 -1 -37 -10 -19 -11 -19 -35 3 -14 13 -25 30 -25 37 0 12 -101 14
-646 11 -453 -2 -650 1 -659 8 -17 14 -27 -1 -14 -20 16 -27 9 -32 -12 -9 -11
13 -19 20 -17 14 9 -27 58 -113 72 -124 9 -7 13 -18 9 -24 -4 -6 0 -8 9 -4 16
6 38 -10 38 -28 0 -5 -8 -1 -16 10 -16 19 -16 19 -9 -5 4 -14 18 -37 31 -52
12 -16 25 -36 28 -45 5 -17 37 -18 498 -18 l493 0 2 28 2 27 -480 0 c-421 0
-480 -2 -485 -15 -5 -12 -10 -13 -20 -4 -8 6 -14 16 -14 21 0 6 6 6 14 -1 10
-9 15 -8 20 4 5 13 66 15 499 15 l494 0 0 -50 c-1 -47 11 -78 20 -52 3 6 9 12
15 12 6 0 5 -6 -2 -15 -11 -13 -8 -27 20 -81 32 -65 50 -82 30 -29 -6 15 -8
30 -5 33 9 10 18 -7 20 -41 1 -18 8 -43 14 -55 7 -13 11 -28 9 -33 -2 -6 -33
41 -68 105 l-65 116 -506 0 -507 0 -16 33 c-9 17 -34 59 -55 92 -21 33 -49 81
-63 106 -47 84 -53 94 -70 118 -26 35 -22 46 7 17 14 -14 25 -30 25 -36z m99
-101 c-11 -6 -11 -11 -1 -21 6 -6 12 -16 12 -21 0 -12 -28 11 -40 32 -6 13 -2
16 18 18 18 1 21 -1 11 -8z m101 1 c0 -19 2 -25 11 -37 7 -8 5 -10 -10 -6 -12
3 -19 9 -16 13 3 4 -5 10 -18 14 -18 5 -20 8 -7 16 19 13 40 13 40 0z m1333
-111 c4 -16 3 -18 -8 -9 -9 8 -14 6 -19 -6 -4 -9 -9 -14 -12 -11 -6 6 17 47
27 47 4 0 9 -9 12 -21z m-234 -91 c-7 -13 -11 -42 -10 -65 2 -38 0 -43 -19
-43 -12 0 -19 4 -15 9 3 5 1 12 -5 16 -5 3 -10 12 -10 18 0 8 3 8 9 -1 7 -11
9 -11 14 2 4 9 2 16 -4 16 -6 0 -6 7 1 19 13 25 13 34 -1 26 -7 -5 -9 3 -7 21
2 20 10 30 28 34 30 7 38 -16 19 -52z m212 -5 c6 -44 2 -150 -4 -146 -5 3 -13
-1 -18 -8 -10 -16 -13 120 -3 145 6 16 23 22 25 9z m56 -28 c0 -8 -4 -12 -9
-9 -4 3 -8 9 -8 15 0 5 4 9 8 9 5 0 9 -7 9 -15z m80 -29 c-3 -8 1 -17 9 -20
17 -7 17 -21 0 -61 -10 -24 -13 -26 -19 -12 -3 9 0 23 9 32 14 13 14 17 0 30
-13 14 -13 45 1 45 3 0 3 -6 0 -14z m-17 -46 c0 -5 -4 -10 -10 -10 -5 0 -10 5
-10 10 0 6 5 10 10 10 6 0 10 -4 10 -10z m-304 -72 c3 -30 1 -39 -6 -28 -11
16 -14 87 -4 77 4 -3 8 -26 10 -49z m238 -11 c-2 -20 12 -23 20 -4 3 6 3 2 0
-10 -7 -31 10 -29 24 2 6 14 16 25 22 25 7 0 7 -4 0 -12 -6 -7 -22 -31 -36
-53 -14 -22 -23 -31 -20 -20 3 11 2 26 -3 34 -7 11 -13 9 -30 -8 -17 -17 -20
-26 -11 -35 13 -17 3 -46 -16 -46 -8 0 -14 -5 -14 -12 0 -6 -6 -3 -14 8 -8 10
-12 21 -10 24 3 2 9 -2 14 -10 7 -11 10 -11 10 -2 0 7 -7 15 -15 18 -8 4 -15
14 -14 23 0 9 3 11 6 4 3 -10 7 -10 18 0 7 7 11 15 8 20 -2 4 0 7 4 7 5 0 10
12 11 26 1 14 5 30 8 35 10 16 39 5 38 -14z m-200 -109 c-5 28 -3 32 15 32 15
0 21 -6 20 -22 -1 -17 -2 -19 -6 -5 -8 29 -19 19 -19 -18 0 -19 2 -32 4 -30 8
7 33 -25 27 -34 -3 -5 -1 -12 5 -16 5 -3 10 -14 10 -24 0 -17 7 -19 54 -12 6
0 1 8 -10 16 -16 12 -16 14 -3 15 9 0 19 9 22 21 3 12 10 18 17 14 6 -4 9 -1
8 7 -2 7 3 12 10 11 6 -2 12 -2 12 0 1 20 28 75 32 65 3 -7 -17 -51 -44 -98
-73 -126 -66 -117 -77 -101 -5 8 -7 21 -3 29 3 10 1 13 -6 8 -7 -4 -19 9 -32
34 -11 22 -34 61 -50 86 -16 26 -27 51 -23 56 3 6 14 -7 24 -28 l19 -39 -6 33z
m63 -10 c-3 -7 -5 -2 -5 12 0 14 2 19 5 13 2 -7 2 -19 0 -25z m23 -29 c0 -5 3
-8 8 -6 4 3 7 -5 7 -17 0 -18 -3 -21 -15 -13 -16 9 -22 47 -8 47 4 0 8 -5 8
-11z"/>
<path d="M4490 3033 c0 -4 5 -15 10 -23 8 -13 10 -13 10 2 0 9 -4 20 -10 23
-5 3 -10 3 -10 -2z"/>
</g>
</svg>
